<mxfile host="app.diagrams.net" modified="2020-04-18T01:39:54.945Z" agent="5.0 (Macintosh; Intel Mac OS X 10_13_6) AppleWebKit/537.36 (KHTML, like Gecko) Chrome/80.0.3987.163 Safari/537.36" etag="woDmgiG-FWADmsZkvXAf" version="12.9.14" type="github">
  <diagram id="prtHgNgQTEPvFCAcTncT" name="Page-1">
    <mxGraphModel dx="655" dy="455" grid="1" gridSize="10" guides="1" tooltips="1" connect="1" arrows="1" fold="1" page="1" pageScale="1" pageWidth="827" pageHeight="1169" math="0" shadow="0">
      <root>
        <mxCell id="0" />
        <mxCell id="1" parent="0" />
        <mxCell id="tLjQbEDF_2GpMN_9WCz0-1" value="作番" style="html=1;" vertex="1" parent="1">
          <mxGeometry x="110" y="680" width="90" height="30" as="geometry" />
        </mxCell>
        <mxCell id="tLjQbEDF_2GpMN_9WCz0-2" value="装置番" style="html=1;" vertex="1" parent="1">
          <mxGeometry x="250" y="680" width="90" height="30" as="geometry" />
        </mxCell>
      </root>
    </mxGraphModel>
  </diagram>
</mxfile>
